<svg xmlns="http://www.w3.org/2000/svg" xmlns:xlink="http://www.w3.org/1999/xlink" version="1.1" xml:space="preserve" width="496" height="496"><rect id="backgroundrect" width="100%" height="100%" x="0" y="0" fill="none" stroke="none"/>
















<g class="currentLayer"><title>Layer 1</title>
	
<g id="svg_2" class="">
		<g id="svg_3">
			<path d="M360.25995649941297,315.4589740833795 l10.107568279804743,-9.676314936029664 l-7.971054962433857,-7.630958906606774 L352.2889015369791,307.82801517677274 l-10.63746868041916,-10.183606405068588 C350.19748612604343,282.91676601630815 355.10752068918345,266.00345256984025 355.10752068918345,248.00000213671422 c0,-1.538064560383968 -0.16911714913226028,-3.0329553787220704 -0.24240124708957292,-4.554829785838838 C381.3545022345102,237.48179923079016 400.2054271244528,215.03145336693996 400.2054271244528,188.6361068236488 h-11.274476608817338 c0,20.842123972641698 -14.532800348765546,38.66748271982853 -35.165092542901284,43.97785299147001 C345.96955739773693,183.36351357629744 301.58194298882313,145.46236477778302 247.99999290541874,145.46236477778302 c-1.6066129167564709,0 -3.168127927077672,0.1619015326719968 -4.757829128920917,0.23205886349652863 C237.01301545012623,120.33524690708914 213.56210410378617,102.28862273191726 185.99037155692338,102.28862273191726 v10.793435511466441 c21.77101433162628,0 40.39081245108812,13.912738374280242 45.93785494262624,33.66472536026383 C180.4827897335161,154.21044425982657 140.89246512165403,196.70419986846997 140.89246512165403,248.00000213671422 c0,1.538064560383968 0.16911714913226028,3.0329553787220704 0.24240124708957292,4.554829785838838 C114.64548357632727,258.5182050426382 95.79455868638468,280.9685509064885 95.79455868638468,307.36389744977964 h11.274476608817338 c0,-20.842123972641698 14.532800348765546,-38.66748271982853 35.165092542901284,-43.97785299147001 C150.03042841310048,312.63649069713097 194.41804282201434,350.5376394956454 247.99999290541874,350.5376394956454 c18.80582698350732,0 36.472931829524086,-4.700541165243637 51.85131792395094,-12.881965282935198 L310.48877950978886,347.8392806177788 l-10.107568279804743,9.676314936029664 l7.971054962433857,7.630958906606774 l10.107568279804743,-9.676314936029664 L372.3010975176299,407.0142908093936 c5.580865921364582,5.342750578175888 13.005108768270798,8.283961755050493 20.897242394442934,8.283961755050493 C409.4955958501183,415.29825256444406 422.7543803420875,402.60517240295957 422.7543803420875,387.0086580888905 c0,-7.55540485802651 -3.0722948759027244,-14.662882142327161 -8.653160797267306,-20.005632720503048 L360.25995649941297,315.4589740833795 zM247.99999290541874,156.25580028924946 c48.08564273660595,0 87.89018240403556,34.10725621623396 94.69432903745681,78.36034181324636 l-11.110996697989487,1.7701234238804964 C325.67549950186583,197.24387164404328 290.4991324823557,167.0492358007159 247.99999290541874,167.0492358007159 c-0.28749915352484234,0 -0.5693610687452755,0.03777702429013257 -0.8568602222701178,0.043173742045865826 l-1.8602886404548606,-10.701691309618978 C246.19607664800796,156.36373464436411 247.08112306180013,156.25580028924946 247.99999290541874,156.25580028924946 zM247.99999290541874,177.84267131218235 c40.40772416600134,0 73.2840979573127,31.473657951436145 73.2840979573127,70.15733082453187 s-32.87637379131136,70.15733082453187 -73.2840979573127,70.15733082453187 s-73.2840979573127,-31.473657951436145 -73.2840979573127,-70.15733082453187 S207.5922687394174,177.84267131218235 247.99999290541874,177.84267131218235 zM152.16694173047136,248.00000213671422 c0,-46.03400245640437 35.62734608386279,-84.14022652963664 81.85270018001387,-90.65406486080663 l1.8490141638460433,10.636930696550179 C194.9817666524552,173.63862818046618 163.4414183392887,207.31414697624146 163.4414183392887,248.00000213671422 c0,0.2752326055423943 0.03946066813086073,0.5450684933290555 0.04509790643526938,0.8203010988714495 l-11.17864355764239,1.7809168593919629 C152.27968649655952,249.72695181854886 152.16694173047136,248.87966713089872 152.16694173047136,248.00000213671422 zM247.99999290541874,339.74420398417897 c-48.08564273660595,0 -87.89018240403556,-34.10725621623396 -94.69432903745681,-78.36034181324636 l11.110996697989487,-1.7701234238804964 C170.3244863089717,298.7561326293852 205.50085332848175,328.9507684727125 247.99999290541874,328.9507684727125 c46.625598015764105,0 84.55857456613003,-36.31451377832884 84.55857456613003,-80.95076633599831 c0,-0.2752326055423943 -0.03946066813086073,-0.5450684933290555 -0.04509790643526938,-0.8203010988714495 l11.17864355764239,-1.7809168593919629 c0.028186191522043366,0.8742682764287822 0.14093095761021684,1.7215529640788976 0.14093095761021684,2.6012179582634123 C343.8330440803661,298.5888343789575 300.8434647709456,339.74420398417897 247.99999290541874,339.74420398417897 zM309.61500757260546,331.73547483467087 c10.023009705238614,-6.778277501200925 18.772003553680868,-15.153983458098882 25.85237486401816,-24.749347627792552 l8.85046413792161,8.472846876501157 L318.4654717105271,340.208321711172 L309.61500757260546,331.73547483467087 zM393.2039771503773,404.5048170529776 c-4.881848371617907,0 -9.476197589710972,-1.8186938836820956 -12.92618743200908,-5.121485150190827 L326.43652667296095,347.8392806177788 L352.2889015369791,323.08993298998627 l53.841263045407196,51.54405128500799 c3.4499898422981055,3.302791266508731 5.349739150883828,7.7011162374313065 5.349739150883828,12.374673813896276 C411.47990373327013,396.65798943614146 403.2833592386599,404.5048170529776 393.2039771503773,404.5048170529776 z" id="svg_4"/>
			<path d="M372.0192356024095,177.84267131218235 c27.977613704780225,0 50.73514473967802,-21.786549579895013 50.73514473967802,-48.570459801598986 S399.9968493071897,80.70175170898438 372.0192356024095,80.70175170898438 c-27.977613704780225,0 -50.73514473967802,21.786549579895013 -50.73514473967802,48.570459801598986 S344.0416218976292,177.84267131218235 372.0192356024095,177.84267131218235 zM388.93095051563546,163.35248413803865 c-5.135524095316297,2.3421755059882177 -10.857320974291095,3.696751662677256 -16.911714913226007,3.696751662677256 c-6.054393938934911,0 -11.77619081790971,-1.3545761566890382 -16.911714913226007,-3.696751662677256 V156.25580028924946 c0,-8.926171167982746 7.5877227577340705,-16.190153267199662 16.911714913226007,-16.190153267199662 s16.911714913226007,7.263982099216915 16.911714913226007,16.190153267199662 V163.35248413803865 zM360.7447589935921,118.47877599911692 c0,-5.9525796845737435 5.056602759054576,-10.793435511466441 11.274476608817338,-10.793435511466441 c6.2178738497627615,0 11.274476608817338,4.8408558268926996 11.274476608817338,10.793435511466441 s-5.056602759054576,10.793435511466441 -11.274476608817338,10.793435511466441 C365.8013617526467,129.27221151058336 360.7447589935921,124.43135568369065 360.7447589935921,118.47877599911692 zM372.0192356024095,91.49518722045082 c21.754102616713055,0 39.46066813086068,16.951090470758043 39.46066813086068,37.777024290132545 c0,10.291540760183253 -4.335036256090267,19.622465759845994 -11.330848991861423,26.443917003092782 c-0.19166610234989484,-9.071882547387544 -5.034053805836941,-17.07521497913991 -12.379375316481438,-21.82972332194088 C391.9525102467985,129.96838810107295 394.56818882004416,124.5177031677824 394.56818882004416,118.47877599911692 c0,-11.905159369147485 -10.113205518109153,-21.586871022932883 -22.548953217634676,-21.586871022932883 s-22.548953217634676,9.681711653785397 -22.548953217634676,21.586871022932883 c0,6.038927168665474 2.6156785732456225,11.489612101956027 6.798509395116855,15.407629192618346 c-7.350958748948904,4.759905060556701 -12.19334645243595,12.757840774553333 -12.379375316481438,21.82972332194088 C336.893603727639,148.89467727042933 332.55856747154877,139.5637522707666 332.55856747154877,129.27221151058336 C332.55856747154877,108.44627769120886 350.2651329856964,91.49518722045082 372.0192356024095,91.49518722045082 z" id="svg_5"/>
			<path d="M123.98075020842802,177.84267131218235 c27.977613704780225,0 50.73514473967802,-21.786549579895013 50.73514473967802,-48.570459801598986 S151.95836391320825,80.70175170898438 123.98075020842802,80.70175170898438 S73.24560546875,102.48830128887938 73.24560546875,129.27221151058336 S96.0031365036478,177.84267131218235 123.98075020842802,177.84267131218235 zM140.89246512165403,163.35248413803865 c-5.135524095316297,2.3421755059882177 -10.857320974291095,3.696751662677256 -16.911714913226007,3.696751662677256 s-11.77619081790971,-1.3545761566890382 -16.911714913226007,-3.696751662677256 V156.25580028924946 c0,-8.926171167982746 7.5877227577340705,-16.190153267199662 16.911714913226007,-16.190153267199662 s16.911714913226007,7.263982099216915 16.911714913226007,16.190153267199662 V163.35248413803865 zM112.70627359961068,118.47877599911692 c0,-5.9525796845737435 5.056602759054576,-10.793435511466441 11.274476608817338,-10.793435511466441 s11.274476608817338,4.8408558268926996 11.274476608817338,10.793435511466441 s-5.056602759054576,10.793435511466441 -11.274476608817338,10.793435511466441 S112.70627359961068,124.43135568369065 112.70627359961068,118.47877599911692 zM123.98075020842802,91.49518722045082 c21.754102616713055,0 39.46066813086068,16.951090470758043 39.46066813086068,37.777024290132545 c0,10.291540760183253 -4.335036256090267,19.622465759845994 -11.330848991861423,26.443917003092782 c-0.19166610234989484,-9.071882547387544 -5.034053805836941,-17.07521497913991 -12.379375316481438,-21.82972332194088 C143.91402485281708,129.96838810107295 146.5297034260627,124.5177031677824 146.5297034260627,118.47877599911692 c0,-11.905159369147485 -10.113205518109153,-21.586871022932883 -22.548953217634676,-21.586871022932883 S101.43179699079334,106.57361662996944 101.43179699079334,118.47877599911692 c0,6.038927168665474 2.6156785732456225,11.489612101956027 6.798509395116855,15.407629192618346 C100.8849848752657,138.64631025229195 96.04259717177865,146.6442459662886 95.85093106942875,155.71612851367615 C88.8551183336576,148.89467727042933 84.52008207756734,139.5637522707666 84.52008207756734,129.27221151058336 C84.52008207756734,108.44627769120886 102.22664759171496,91.49518722045082 123.98075020842802,91.49518722045082 z" id="svg_6"/>
			<path d="M123.98075020842802,318.1573329612461 c-27.977613704780225,0 -50.73514473967802,21.786549579895013 -50.73514473967802,48.570459801598986 c0,26.783910221703973 22.757531034897795,48.570459801598986 50.73514473967802,48.570459801598986 s50.73514473967802,-21.786549579895013 50.73514473967802,-48.570459801598986 C174.71589494810604,339.9438825411411 151.95836391320825,318.1573329612461 123.98075020842802,318.1573329612461 zM140.89246512165403,400.8080653903003 c-5.135524095316297,2.3421755059882177 -10.857320974291095,3.696751662677256 -16.911714913226007,3.696751662677256 s-11.77619081790971,-1.3545761566890382 -16.911714913226007,-3.696751662677256 V393.7113815415112 c0,-8.926171167982746 7.5877227577340705,-16.190153267199662 16.911714913226007,-16.190153267199662 s16.911714913226007,7.263982099216915 16.911714913226007,16.190153267199662 V400.8080653903003 zM112.70627359961068,355.93435725137863 c0,-5.9525796845737435 5.056602759054576,-10.793435511466441 11.274476608817338,-10.793435511466441 s11.274476608817338,4.8408558268926996 11.274476608817338,10.793435511466441 c0,5.9525796845737435 -5.056602759054576,10.793435511466441 -11.274476608817338,10.793435511466441 S112.70627359961068,361.88693693595235 112.70627359961068,355.93435725137863 zM152.1105693474273,393.1717097659378 c-0.19166610234989484,-9.071882547387544 -5.034053805836941,-17.07521497913991 -12.379375316481438,-21.82972332194088 C143.91402485281708,367.42396935333466 146.5297034260627,361.97328442004414 146.5297034260627,355.93435725137863 c0,-11.905159369147485 -10.113205518109153,-21.586871022932883 -22.548953217634676,-21.586871022932883 s-22.548953217634676,9.681711653785397 -22.548953217634676,21.586871022932883 c0,6.038927168665474 2.6156785732456225,11.489612101956027 6.798509395116855,15.407629192618346 c-7.345321510644496,4.759905060556701 -12.187709214131543,12.757840774553333 -12.379375316481438,21.82972332194088 C88.8551183336576,386.3502585226911 84.52008207756734,377.0193335230283 84.52008207756734,366.72779276284507 c0,-20.8259338193745 17.706565514147627,-37.777024290132545 39.46066813086068,-37.777024290132545 s39.46066813086068,16.951090470758043 39.46066813086068,37.777024290132545 C163.4414183392887,377.0193335230283 159.10638208319844,386.3502585226911 152.1105693474273,393.1717097659378 z" id="svg_7"/>
			<path d="M185.99037155692338,237.20656662524777 v26.983588778666103 v5.396717755733221 v5.396717755733221 h124.01924269699072 v-5.396717755733221 v-5.396717755733221 v-48.570459801598986 h-33.82342982645201 v48.570459801598986 h-11.274476608817338 V194.032824579382 h-33.82342982645201 v70.15733082453187 h-11.274476608817338 v-26.983588778666103 H185.99037155692338 zM287.4606610362794,226.41313111378133 h11.274476608817338 v37.777024290132545 h-11.274476608817338 V226.41313111378133 zM242.36275460101007,204.82626009084845 h11.274476608817338 v59.36389531306543 h-11.274476608817338 V204.82626009084845 zM208.53932477455805,264.1901554039139 h-11.274476608817338 v-16.190153267199662 h11.274476608817338 V264.1901554039139 z" id="svg_8"/>
		</g>
	</g><g id="svg_9">
</g><g id="svg_10">
</g><g id="svg_11">
</g><g id="svg_12">
</g><g id="svg_13">
</g><g id="svg_14">
</g><g id="svg_15">
</g><g id="svg_16">
</g><g id="svg_17">
</g><g id="svg_18">
</g><g id="svg_19">
</g><g id="svg_20">
</g><g id="svg_21">
</g><g id="svg_22">
</g><g id="svg_23">
</g></g></svg>